<svg xmlns="http://www.w3.org/2000/svg" data-name="Layer 1" viewBox="0 0 512 640" x="0px" y="0px"><title>Artboard 9</title><path d="M228.627,429.059a203.113,203.113,0,0,0,131.7-47.855L463.805,482.728l22.411-22.842L383.105,358.721a196.675,196.675,0,0,0,48.366-129.555c0-53.442-21.132-103.672-59.5-141.437a204.969,204.969,0,0,0-286.683,0c-38.371,37.765-59.5,87.995-59.5,141.437s21.131,103.67,59.5,141.435A203.045,203.045,0,0,0,228.627,429.059Zm-120.9-318.523a173.115,173.115,0,0,1,241.79,0,165.847,165.847,0,0,1,0,237.258c-66.662,65.61-175.128,65.61-241.79,0a165.849,165.849,0,0,1,0-237.258Z"/><text x="0" y="527" fill="#000000" font-size="5px" font-weight="bold" font-family="'Helvetica Neue', Helvetica, Arial-Unicode, Arial, Sans-serif">Created by Bhima</text><text x="0" y="532" fill="#000000" font-size="5px" font-weight="bold" font-family="'Helvetica Neue', Helvetica, Arial-Unicode, Arial, Sans-serif">from the Noun Project</text></svg>